# xmcd CD database file
#
# Track frame offsets:
#	150
#	18450
#	25387
#	38362
#	50567
#	63057
#	79425
#	86337
#	103820
#	116575
#	130187
#	138350
#	148387
#	165650
#	181400
#	196642
#	211400
#
# Disc length: 3058 seconds
#
# Revision: 0
# Processed by: cddbd v1.5.1PL0 Copyright (c) Steve Scherf et al.
# Submitted via: CDex 1.50
#
DISCID=e90bf011
DTITLE=宗次郎 - こころのうた・四 愁
DYEAR=1991
DGENRE=New Age
TTITLE0=琵琶湖周航の歌
TTITLE1=春の唄
TTITLE2=あざみの歌
TTITLE3=さくら貝の歌
TTITLE4=芭蕉布
TTITLE5=竹田の子守唄
TTITLE6=ゆりかご
TTITLE7=島原地方の子守唄
TTITLE8=五木の子守唄
TTITLE9=初恋
TTITLE10=真珠
TTITLE11=平城山
TTITLE12=遥かな友に
TTITLE13=惜別の唄
TTITLE14=忘れな草をあなたに
TTITLE15=中国地方の子守唄
TTITLE16=七里ケ浜の哀歌
EXTD=YEAR: 1991
EXTT0=
EXTT1=
EXTT2=
EXTT3=
EXTT4=
EXTT5=
EXTT6=
EXTT7=
EXTT8=
EXTT9=
EXTT10=
EXTT11=
EXTT12=
EXTT13=
EXTT14=
EXTT15=
EXTT16=
PLAYORDER=
